#!OML:ASF X:\für Bonn\!DataBase\2005_08_12_Daniel\c3d\Daniel.ASF
:FULLY-SPECIFIED
:DEGREES
232
root 2.64344 17.655 17.5454 -4.29253 17.4604 0.626422
lowerback 3.966 2.62319 1.55604
upperback 1.44859 3.54521 -6.22011
thorax -0.231665 1.82844 -7.4968
lowerneck 1.48195 -6.83186 -3.67267
upperneck 10.4554 -9.41281 3.66789
head 3.52675 -4.68158 1.56966
rclavicle 3.13086e-014 6.04305e-014
rhumerus 24.532 -9.43446 -56.2734
rradius 66.2129
rwrist -14.3069
rhand -9.32169 16.369
rfingers 7.12502
rthumb 16.6368 -12.938
lclavicle 3.13086e-014 6.04305e-014
lhumerus -34.5192 37.7304 62.7363
lradius 15.8298
lwrist -41.9972
lhand -10.099 -6.53303
lfingers 7.12502
lthumb 15.8884 22.8352
rfemur 11.3144 17.1213 22.5288
rtibia 12.4702
rfoot -29.1498 -30.7919
rtoes -9.73062
lfemur -0.653959 -18.7907 -19.7067
ltibia 26.782
lfoot -21.117 6.51042
ltoes -13.8455
233
root 2.64811 17.6557 17.5424 -4.29584 17.2586 0.625956
lowerback 3.92412 2.56591 1.46741
upperback 1.46048 3.46547 -6.1529
thorax -0.217143 1.78728 -7.36839
lowerneck 1.41442 -6.78879 -3.68337
upperneck 10.6011 -9.35386 3.62764
head 3.58591 -4.65237 1.55604
rclavicle 5.62064e-014 -3.18055e-014
rhumerus 23.2375 -9.23276 -56.478
rradius 68.2853
rwrist -15.2119
rhand -9.09266 16.5114
rfingers 7.12502
rthumb 16.8572 -12.7769
lclavicle 5.62064e-014 -3.18055e-014
lhumerus -34.6435 37.7216 62.6928
lradius 15.8207
lwrist -41.9935
lhand -10.0581 -6.47695
lfingers 7.12502
lthumb 15.9277 22.8881
rfemur 11.2759 17.2294 22.5062
rtibia 12.4794
rfoot -29.039 -30.7555
rtoes -9.81948
lfemur -0.607108 -18.7001 -19.7329
ltibia 26.7673
lfoot -21.1431 6.60989
ltoes -13.7908
234
root 2.65248 17.6561 17.5387 -4.28906 17.1017 0.625314
lowerback 3.86551 2.47546 1.38858
upperback 1.48906 3.34289 -6.09189
thorax -0.180391 1.72553 -7.24984
lowerneck 1.28889 -6.74425 -3.66503
upperneck 10.7781 -9.28943 3.55076
head 3.66276 -4.61975 1.52313
rclavicle 1.47101e-014 -1.74931e-014
rhumerus 22.0037 -9.00686 -56.7262
rradius 70.2736
rwrist -16.0814
rhand -8.97331 16.6692
rfingers 7.12502
rthumb 16.9721 -12.6093
lclavicle 1.47101e-014 -1.74931e-014
lhumerus -34.8239 37.9259 62.5355
lradius 15.8331
lwrist -42.184
lhand -10.039 -6.38977
lfingers 7.12502
lthumb 15.9461 22.9738
rfemur 11.2233 17.3682 22.4963
rtibia 12.5096
rfoot -28.9868 -30.7615
rtoes -9.87793
lfemur -0.585708 -18.5957 -19.7367
ltibia 26.7424
lfoot -21.152 6.63612
ltoes -13.6922
235
root 2.65565 17.6565 17.5356 -4.30388 16.9195 0.610568
lowerback 3.84094 2.40639 1.31183
upperback 1.50578 3.24787 -6.02267
thorax -0.171035 1.67672 -7.12693
lowerneck 1.23936 -6.71347 -3.65696
upperneck 10.9134 -9.24348 3.47228
head 3.71225 -4.59798 1.49402
rclavicle 3.6477e-014 -9.70069e-014
rhumerus 20.679 -8.76964 -56.9042
rradius 72.2852
rwrist -17.081
rhand -8.85559 16.6603
rfingers 7.12502
rthumb 17.0854 -12.6085
lclavicle 3.6477e-014 -9.70069e-014
lhumerus -34.9712 37.9815 62.4506
lradius 15.8246
lwrist -42.2116
lhand -10.0028 -6.3667
lfingers 7.12502
lthumb 15.9809 22.9941
rfemur 11.1958 17.5372 22.5164
rtibia 12.5379
rfoot -28.9827 -30.7519
rtoes -9.9961
lfemur -0.543028 -18.4368 -19.7252
ltibia 26.7197
lfoot -21.1572 6.66256
ltoes -13.6896
236
root 2.66046 17.6564 17.5323 -4.31081 16.7456 0.610838
lowerback 3.79104 2.32781 1.24314
upperback 1.5394 3.14197 -5.97677
thorax -0.129089 1.6238 -7.03164
lowerneck 1.12896 -6.67508 -3.62276
upperneck 11.1172 -9.19269 3.43884
head 3.7988 -4.57016 1.47251
rclavicle -4.07509e-014 1.90833e-014
rhumerus 19.3995 -8.55646 -57.1692
rradius 74.2367
rwrist -18.0236
rhand -8.69483 16.6246
rfingers 7.12502
rthumb 17.2402 -12.6306
lclavicle -4.07509e-014 1.90833e-014
lhumerus -35.1319 38.155 62.2936
lradius 15.8401
lwrist -42.358
lhand -9.98458 -6.30497
lfingers 7.12502
lthumb 15.9985 23.0544
rfemur 11.1574 17.6027 22.4878
rtibia 12.5711
rfoot -28.8964 -30.6934
rtoes -10.1034
lfemur -0.488444 -18.3965 -19.7574
ltibia 26.6932
lfoot -21.1809 6.76964
ltoes -13.5866
237
root 2.66493 17.6571 17.5291 -4.31301 16.5737 0.596556
lowerback 3.77074 2.24736 1.18368
upperback 1.5406 3.0317 -5.91939
thorax -0.137548 1.56683 -6.93189
lowerneck 1.13439 -6.64526 -3.60397
upperneck 11.2434 -9.15151 3.38473
head 3.83621 -4.55028 1.45152
rclavicle -2.29099e-014 3.49861e-014
rhumerus 18.1204 -8.28279 -57.3926
rradius 76.0581
rwrist -19.1138
rhand -8.54044 16.6401
rfingers 7.12502
rthumb 17.3888 -12.602
lclavicle -2.29099e-014 3.49861e-014
lhumerus -35.3812 38.3818 62.0413
lradius 15.825
lwrist -42.6685
lhand -9.98625 -6.26089
lfingers 7.12502
lthumb 15.9969 23.0986
rfemur 11.1075 17.7217 22.4828
rtibia 12.6018
rfoot -28.8418 -30.6546
rtoes -10.1288
lfemur -0.457274 -18.2534 -19.7488
ltibia 26.6687
lfoot -21.1852 6.80105
ltoes -13.5842
238
root 2.66862 17.6567 17.5256 -4.33555 16.3887 0.570328
lowerback 3.74072 2.16807 1.13955
upperback 1.57311 2.92527 -5.85262
thorax -0.106962 1.51328 -6.82978
lowerneck 1.11796 -6.61324 -3.63812
upperneck 11.3572 -9.10945 3.3715
head 3.87925 -4.53056 1.45258
rclavicle 3.54334e-014 -1.90833e-014
rhumerus 16.8658 -8.02523 -57.6336
rradius 77.8724
rwrist -20.1268
rhand -8.36423 16.6164
rfingers 7.12502
rthumb 17.5584 -12.6108
lclavicle 3.54334e-014 -1.90833e-014
lhumerus -35.5317 38.4778 61.9581
lradius 15.842
lwrist -42.7522
lhand -9.98826 -6.24395
lfingers 7.12502
lthumb 15.995 23.1157
rfemur 11.0706 17.8381 22.5017
rtibia 12.6328
rfoot -28.7362 -30.6448
rtoes -10.2497
lfemur -0.408721 -18.1039 -19.7232
ltibia 26.6398
lfoot -21.1961 6.80623
ltoes -13.487
239
root 2.67286 17.6566 17.5224 -4.34564 16.2018 0.570269
lowerback 3.71779 2.09628 1.06899
upperback 1.59351 2.82731 -5.78981
thorax -0.0924941 1.46329 -6.71776
lowerneck 1.05095 -6.60119 -3.71234
upperneck 11.5803 -9.09762 3.38261
head 3.9765 -4.52539 1.46425
rclavicle 5.40943e-014 6.99722e-014
rhumerus 15.6076 -7.75353 -57.8292
rradius 79.5833
rwrist -21.1574
rhand -8.17058 16.5749
rfingers 7.12502
rthumb 17.7447 -12.6354
lclavicle 5.40943e-014 6.99722e-014
lhumerus -35.7861 38.7562 61.7408
lradius 15.8725
lwrist -43.0371
lhand -9.91329 -6.25867
lfingers 7.12502
lthumb 16.0671 23.0952
rfemur 11.0325 17.9338 22.4786
rtibia 12.6695
rfoot -28.6788 -30.5673
rtoes -10.3388
lfemur -0.348827 -18.0149 -19.7515
ltibia 26.609
lfoot -21.2085 6.90783
ltoes -13.4819
240
root 2.67695 17.6575 17.5193 -4.34375 16.0107 0.556684
lowerback 3.66601 2.02497 1.01783
upperback 1.61516 2.73145 -5.73525
thorax -0.0584897 1.41497 -6.62454
lowerneck 1.06571 -6.60092 -3.76286
upperneck 11.7059 -9.10189 3.3968
head 4.02299 -4.52869 1.47637
rclavicle -3.84151e-014 3.97569e-014
rhumerus 14.3726 -7.41227 -57.9894
rradius 81.2138
rwrist -22.2441
rhand -8.05704 16.599
rfingers 7.12502
rthumb 17.854 -12.6014
lclavicle -3.84151e-014 3.97569e-014
lhumerus -35.9537 38.8877 61.6096
lradius 15.8552
lwrist -43.1984
lhand -9.94105 -6.25735
lfingers 7.12502
lthumb 16.0404 23.0987
rfemur 10.9763 18.0859 22.4807
rtibia 12.7071
rfoot -28.6367 -30.5387
rtoes -10.3566
lfemur -0.315699 -17.8967 -19.7417
ltibia 26.5787
lfoot -21.2242 6.95052
ltoes -13.38
241
root 2.68064 17.6577 17.5162 -4.34323 15.827 0.558469
lowerback 3.62926 1.94912 0.962999
upperback 1.63636 2.62918 -5.6983
thorax -0.0330375 1.36341 -6.54865
lowerneck 1.07508 -6.6015 -3.80957
upperneck 11.8533 -9.11034 3.43329
head 4.07985 -4.53294 1.49467
rclavicle -2.20651e-014 7.95139e-015
rhumerus 13.1053 -7.06761 -58.1721
rradius 82.7951
rwrist -23.3608
rhand -7.82891 16.6738
rfingers 7.12502
rthumb 18.0735 -12.5065
lclavicle -2.20651e-014 7.95139e-015
lhumerus -36.1426 39.1113 61.3871
lradius 15.852
lwrist -43.4314
lhand -9.90569 -6.26447
lfingers 7.12502
lthumb 16.0745 23.0888
rfemur 10.9182 18.1905 22.4555
rtibia 12.7436
rfoot -28.5443 -30.4965
rtoes -10.4378
lfemur -0.260048 -17.8671 -19.7819
ltibia 26.5449
lfoot -21.2518 7.10722
ltoes -13.3687
242
root 2.68414 17.6584 17.5131 -4.34187 15.6494 0.543186
lowerback 3.60602 1.85494 0.897166
upperback 1.64485 2.50092 -5.6194
thorax -0.0335718 1.29749 -6.42208
lowerneck 1.08178 -6.5868 -3.99551
upperneck 12.0368 -9.1009 3.51696
head 4.16137 -4.53242 1.55306
rclavicle 5.93869e-015 -6.04305e-014
rhumerus 11.9255 -6.65419 -58.3259
rradius 84.2722
rwrist -24.3985
rhand -7.55862 16.7876
rfingers 7.12502
rthumb 18.3335 -12.3684
lclavicle 5.93869e-015 -6.04305e-014
lhumerus -36.3549 39.2688 61.2603
lradius 15.8603
lwrist -43.5717
lhand -9.94816 -6.21524
lfingers 7.12502
lthumb 16.0336 23.1413
rfemur 10.8663 18.3217 22.4594
rtibia 12.775
rfoot -28.5039 -30.4648
rtoes -10.4639
lfemur -0.224822 -17.77 -19.7788
ltibia 26.5154
lfoot -21.2604 7.18715
ltoes -13.3628
243
root 2.68796 17.6581 17.5099 -4.35022 15.4577 0.543802
lowerback 3.56856 1.78778 0.84225
upperback 1.68911 2.41148 -5.56916
thorax 0.0177802 1.25314 -6.33211
lowerneck 1.03901 -6.61052 -4.15825
upperneck 12.2093 -9.14769 3.64812
head 4.25326 -4.55649 1.61968
rclavicle 1.08586e-014 -7.95139e-015
rhumerus 10.686 -6.336 -58.5457
rradius 85.8004
rwrist -25.4696
rhand -7.24346 16.8821
rfingers 7.12502
rthumb 18.6367 -12.2452
lclavicle 1.08586e-014 -7.95139e-015
lhumerus -36.5339 39.5898 61.0357
lradius 15.8291
lwrist -43.9168
lhand -9.94746 -6.29205
lfingers 7.12502
lthumb 16.0342 23.0645
rfemur 10.8322 18.4319 22.443
rtibia 12.8086
rfoot -28.465 -30.3937
rtoes -10.4541
lfemur -0.165146 -17.7061 -19.8041
ltibia 26.4841
lfoot -21.2863 7.28578
ltoes -13.2583
244
root 2.6913 17.6589 17.5074 -4.34422 15.2641 0.542662
lowerback 3.53657 1.72396 0.815607
upperback 1.69382 2.32556 -5.53814
thorax 0.0280141 1.20947 -6.2801
lowerneck 1.16438 -6.63165 -4.30049
upperneck 12.3403 -9.19514 3.77847
head 4.29684 -4.58231 1.68899
rclavicle -2.11457e-014 2.06736e-014
rhumerus 9.39106 -6.00853 -58.8109
rradius 87.2367
rwrist -26.3648
rhand -6.88588 17.0689
rfingers 7.12502
rthumb 18.9806 -12.025
lclavicle -2.11457e-014 2.06736e-014
lhumerus -36.6471 39.5438 60.9832
lradius 15.8507
lwrist -43.9622
lhand -10.0121 -6.26985
lfingers 7.12502
lthumb 15.972 23.0917
rfemur 10.7852 18.6155 22.4422
rtibia 12.8311
rfoot -28.431 -30.3925
rtoes -10.4655
lfemur -0.127012 -17.6105 -19.8203
ltibia 26.4578
lfoot -21.3015 7.38451
ltoes -13.2509
